<svg xmlns="http://www.w3.org/2000/svg" width="144" height="48" viewBox="0 0 144 48">
    <g fill="none" fill-rule="evenodd">
        <g>
            <g transform="translate(-403 -249) translate(403 249)">
                <rect width="144" height="48" fill="#1D90F5" rx="8"/>
                <path fill="#FFF" fill-rule="nonzero" d="M58.064 30c2.016 0 3.52-1.456 3.52-3.344 0-1.28-.688-2.208-1.68-2.688.544-.48.896-1.168.896-2.032 0-1.808-1.472-3.296-3.376-3.296h-4.16V30h4.8zm-.864-6.704h-1.616v-2.544H57.2c.8 0 1.344.592 1.344 1.28 0 .704-.544 1.264-1.344 1.264zm.704 4.576h-2.32v-2.608h2.32c.864 0 1.424.576 1.424 1.312 0 .736-.56 1.296-1.424 1.296zm8.976 2.304c2.32 0 4.208-1.84 4.208-4.176 0-2.336-1.888-4.176-4.208-4.176-2.32 0-4.208 1.84-4.208 4.176 0 2.336 1.888 4.176 4.208 4.176zm0-2.048c-1.152 0-2-.896-2-2.128 0-1.232.848-2.128 2-2.128 1.152 0 1.984.896 1.984 2.128 0 1.232-.832 2.128-1.984 2.128zm9.472 2.048c2.32 0 4.208-1.84 4.208-4.176 0-2.336-1.888-4.176-4.208-4.176-2.32 0-4.208 1.84-4.208 4.176 0 2.336 1.888 4.176 4.208 4.176zm0-2.048c-1.152 0-2-.896-2-2.128 0-1.232.848-2.128 2-2.128 1.152 0 1.984.896 1.984 2.128 0 1.232-.832 2.128-1.984 2.128zM84.336 30v-3.68L87.6 30h2.704L86.4 25.6l3.168-3.6h-2.64l-2.592 2.944V18h-2.192v12h2.192zm12.24 0v-3.904c0-1.536.768-2.272 1.776-2.272.912 0 1.408.704 1.408 1.856V30h2.192v-4.688c0-2.08-1.152-3.488-3.088-3.488-1.04 0-1.872.448-2.288 1.088V22h-2.192v8h2.192zm11.072.176c2.32 0 4.208-1.84 4.208-4.176 0-2.336-1.888-4.176-4.208-4.176-2.32 0-4.208 1.84-4.208 4.176 0 2.336 1.888 4.176 4.208 4.176zm0-2.048c-1.152 0-2-.896-2-2.128 0-1.232.848-2.128 2-2.128 1.152 0 1.984.896 1.984 2.128 0 1.232-.832 2.128-1.984 2.128zM117.184 30l1.488-4.56 1.504 4.56h2.176l2.64-8h-2.352l-1.504 5.12-1.632-5.12h-1.68l-1.616 5.12-1.52-5.12h-2.336l2.656 8h2.176z"/>
                <path fill="#FFF" d="M20.25 28c.414 0 .75.32.75.714v3.572c0 .395-.336.714-.75.714h-4.5c-.414 0-.75-.32-.75-.714v-3.572c0-.395.336-.714.75-.714h4.5zm8-6c.414 0 .75.328.75.733v9.534c0 .405-.336.733-.75.733h-4.5c-.414 0-.75-.328-.75-.733v-9.534c0-.405.336-.733.75-.733h4.5zm8 3c.414 0 .75.325.75.727v6.546c0 .402-.336.727-.75.727h-4.5c-.414 0-.75-.325-.75-.727v-6.546c0-.402.336-.727.75-.727h4.5zm0-10c.414 0 .75.325.75.727v6.546c0 .402-.336.727-.75.727h-4.5c-.414 0-.75-.325-.75-.727v-6.546c0-.402.336-.727.75-.727h4.5z"/>
                <path fill="#FFF" d="M20.25 15c.414 0 .75.328.75.733v9.534c0 .405-.336.733-.75.733h-4.5c-.414 0-.75-.328-.75-.733v-9.534c0-.405.336-.733.75-.733h4.5zm8 0c.414 0 .75.32.75.714v3.572c0 .395-.336.714-.75.714h-4.5c-.414 0-.75-.32-.75-.714v-3.572c0-.395.336-.714.75-.714h4.5z" opacity=".35"/>
            </g>
        </g>
    </g>
</svg>